<svg width="341" height="404" viewBox="0 0 341 404" fill="none" xmlns="http://www.w3.org/2000/svg">
<path fill-rule="evenodd" clip-rule="evenodd" d="M149.071 73.4989L36.1539 186.416C32.1303 190.302 26.7415 192.453 21.148 192.404C15.5544 192.355 10.2038 190.112 6.2484 186.156C2.29302 182.201 0.0494127 176.85 0.000806453 171.257C-0.0477998 165.663 2.10249 160.274 5.98853 156.251L155.322 6.91755C157.301 4.93471 159.652 3.36164 162.24 2.28834C164.828 1.21505 167.603 0.662598 170.405 0.662598C173.206 0.662598 175.981 1.21505 178.569 2.28834C181.157 3.36164 183.508 4.93471 185.487 6.91755L334.821 156.251C338.707 160.274 340.857 165.663 340.808 171.257C340.76 176.85 338.516 182.201 334.561 186.156C330.605 190.112 325.255 192.355 319.661 192.404C314.068 192.453 308.679 190.302 304.655 186.416L191.738 73.4989V356C191.738 361.658 189.49 367.084 185.489 371.085C181.489 375.086 176.062 377.334 170.405 377.334C164.747 377.334 159.32 375.086 155.32 371.085C151.319 367.084 149.071 361.658 149.071 356V73.4989Z" fill="black"/>
<rect y="384" width="341" height="20" rx="9" fill="black"/>
</svg>
